#Comment line ignore any data following # character 
#Hierarchical Translation and Rotation (.htr) file 
[Header]	
#Header keywords are followed by a single value 
FileType HTR		#Single word string
DataType HTRS		#Translation followed by rotation and scale data
FileVersion 1		#integer
NumSegments 84		#integer
NumFrames 2		#integer
DataFrameRate 30		#integer, data frame rate in this file
EulerRotationOrder ZYX
CalibrationUnits mm
RotationUnits Degrees
GlobalAxisofGravity Y
BoneLengthAxis Y
ScaleFactor 1.00
[SegmentNames&Hierarchy]
#CHILD	PARENT
MASTER GLOBAL
root MASTER
chest root
L_mid_tent01 root
R_mid_tent01 root
spine01 root
Bip01_Neck chest
L_humerus chest
R_humerus chest
weapon_bone chest
Bip01_Head Bip01_Neck
eye_left_bone Bip01_Head
eye_right_bone Bip01_Head
L_forearm L_humerus
L_front_hand L_forearm
L_weapon_bone L_forearm
L_front_hand01_01 L_front_hand
L_front_hand02_01 L_front_hand
L_front_hand03_01 L_front_hand
L_front_hand01_02 L_front_hand01_01
L_front_hand02_02 L_front_hand02_01
L_front_hand03_02 L_front_hand03_01
R_forearm R_humerus
R_front_hand R_forearm
R_weapon_bone R_forearm
R_front_hand01_01 R_front_hand
R_front_hand02_01 R_front_hand
R_front_hand03_01 R_front_hand
R_front_hand01_02 R_front_hand01_01
R_front_hand02_02 R_front_hand02_01
R_front_hand03_02 R_front_hand03_01
null_rope01_connect L_mid_tent01
Rope1_Seg01 null_rope01_connect
Rope1_Seg02 Rope1_Seg01
Rope1_Seg03 Rope1_Seg02
Rope1_Seg04 Rope1_Seg03
Rope1_Seg05 Rope1_Seg04
Rope1_Seg06 Rope1_Seg05
Rope1_Seg07 Rope1_Seg06
Rope1_Seg09 Rope1_Seg07
L_mid_hand01 Rope1_Seg09
L_mid_hand02 Rope1_Seg09
L_mid_hand03 Rope1_Seg09
null_rope02_connect R_mid_tent01
Rope2_Seg01 null_rope02_connect
Rope2_Seg02 Rope2_Seg01
Rope2_Seg03 Rope2_Seg02
Rope2_Seg04 Rope2_Seg03
Rope2_Seg05 Rope2_Seg04
Rope2_Seg06 Rope2_Seg05
Rope2_Seg07 Rope2_Seg06
Rope2_Seg09 Rope2_Seg07
R_mid_hand01 Rope2_Seg09
R_mid_hand02 Rope2_Seg09
R_mid_hand03 Rope2_Seg09
spine02 spine01
spine03 spine02
pelvis spine03
null_rope03_connect pelvis
null_rope04_connect pelvis
Rope3_Seg01 null_rope03_connect
Rope3_Seg02 Rope3_Seg01
Rope3_Seg03 Rope3_Seg02
Rope3_Seg04 Rope3_Seg03
Rope3_Seg05 Rope3_Seg04
Rope3_Seg06 Rope3_Seg05
Rope3_Seg07 Rope3_Seg06
Rope3_Seg08 Rope3_Seg07
Rope3_Seg09 Rope3_Seg08
R_rear_hand01 Rope3_Seg09
R_rear_hand02 Rope3_Seg09
R_rear_hand03 Rope3_Seg09
Rope4_Seg01 null_rope04_connect
Rope4_Seg02 Rope4_Seg01
Rope4_Seg03 Rope4_Seg02
Rope4_Seg04 Rope4_Seg03
Rope4_Seg05 Rope4_Seg04
Rope4_Seg06 Rope4_Seg05
Rope4_Seg07 Rope4_Seg06
Rope4_Seg08 Rope4_Seg07
Rope4_Seg09 Rope4_Seg08
L_rear_hand01 Rope4_Seg09
L_rear_hand02 Rope4_Seg09
L_rear_hand03 Rope4_Seg09
[BasePosition]
#SegmentName Tx, Ty, Tz, Rx, Ry, Rz, BoneLength
MASTER 0.000000 0.000000 0.000000 -90.000000 0.000000 0.000000 10.000000 
root 0.000000 0.000000 0.000000 0.000000 0.000000 0.000000 10.000000 
chest 0.000000 0.000000 0.000000 0.000000 0.000000 0.000000 10.000000 
L_mid_tent01 0.000000 0.000000 0.000000 0.000000 0.000000 0.000000 10.000000 
R_mid_tent01 0.000000 0.000000 0.000000 0.000000 0.000000 0.000000 10.000000 
spine01 0.000000 0.000000 0.000000 0.000000 0.000000 0.000000 10.000000 
Bip01_Neck 0.000000 0.000000 0.000000 0.000000 0.000000 0.000000 10.000000 
L_humerus 0.000000 0.000000 0.000000 0.000000 0.000000 0.000000 10.000000 
R_humerus 0.000000 0.000000 0.000000 0.000000 0.000000 0.000000 10.000000 
weapon_bone 0.000000 0.000000 0.000000 0.000000 0.000000 0.000000 10.000000 
Bip01_Head 0.000000 0.000000 0.000000 0.000000 0.000000 0.000000 10.000000 
eye_left_bone 0.000000 0.000000 0.000000 0.000000 0.000000 0.000000 10.000000 
eye_right_bone 0.000000 0.000000 0.000000 0.000000 0.000000 0.000000 10.000000 
L_forearm 0.000000 0.000000 0.000000 0.000000 0.000000 0.000000 10.000000 
L_front_hand 0.000000 0.000000 0.000000 0.000000 0.000000 0.000000 10.000000 
L_weapon_bone 0.000000 0.000000 0.000000 0.000000 0.000000 0.000000 10.000000 
L_front_hand01_01 0.000000 0.000000 0.000000 0.000000 0.000000 0.000000 10.000000 
L_front_hand02_01 0.000000 0.000000 0.000000 0.000000 0.000000 0.000000 10.000000 
L_front_hand03_01 0.000000 0.000000 0.000000 0.000000 0.000000 0.000000 10.000000 
L_front_hand01_02 0.000000 0.000000 0.000000 0.000000 0.000000 0.000000 10.000000 
L_front_hand02_02 0.000000 0.000000 0.000000 0.000000 0.000000 0.000000 10.000000 
L_front_hand03_02 0.000000 0.000000 0.000000 0.000000 0.000000 0.000000 10.000000 
R_forearm 0.000000 0.000000 0.000000 0.000000 0.000000 0.000000 10.000000 
R_front_hand 0.000000 0.000000 0.000000 0.000000 0.000000 0.000000 10.000000 
R_weapon_bone 0.000000 0.000000 0.000000 0.000000 0.000000 0.000000 10.000000 
R_front_hand01_01 0.000000 0.000000 0.000000 0.000000 0.000000 0.000000 10.000000 
R_front_hand02_01 0.000000 0.000000 0.000000 0.000000 0.000000 0.000000 10.000000 
R_front_hand03_01 0.000000 0.000000 0.000000 0.000000 0.000000 0.000000 10.000000 
R_front_hand01_02 0.000000 0.000000 0.000000 0.000000 0.000000 0.000000 10.000000 
R_front_hand02_02 0.000000 0.000000 0.000000 0.000000 0.000000 0.000000 10.000000 
R_front_hand03_02 0.000000 0.000000 0.000000 0.000000 0.000000 0.000000 10.000000 
null_rope01_connect 0.000000 0.000000 0.000000 0.000000 0.000000 0.000000 10.000000 
Rope1_Seg01 0.000000 0.000000 0.000000 0.000000 0.000000 0.000000 10.000000 
Rope1_Seg02 0.000000 0.000000 0.000000 0.000000 0.000000 0.000000 10.000000 
Rope1_Seg03 0.000000 0.000000 0.000000 0.000000 0.000000 0.000000 10.000000 
Rope1_Seg04 0.000000 0.000000 0.000000 0.000000 0.000000 0.000000 10.000000 
Rope1_Seg05 0.000000 0.000000 0.000000 0.000000 0.000000 0.000000 10.000000 
Rope1_Seg06 0.000000 0.000000 0.000000 0.000000 0.000000 0.000000 10.000000 
Rope1_Seg07 0.000000 0.000000 0.000000 0.000000 0.000000 0.000000 10.000000 
Rope1_Seg09 0.000000 0.000000 0.000000 0.000000 0.000000 0.000000 10.000000 
L_mid_hand01 0.000000 0.000000 0.000000 0.000000 0.000000 0.000000 10.000000 
L_mid_hand02 0.000000 0.000000 0.000000 0.000000 0.000000 0.000000 10.000000 
L_mid_hand03 0.000000 0.000000 0.000000 0.000000 0.000000 0.000000 10.000000 
null_rope02_connect 0.000000 0.000000 0.000000 0.000000 0.000000 0.000000 10.000000 
Rope2_Seg01 0.000000 0.000000 0.000000 0.000000 0.000000 0.000000 10.000000 
Rope2_Seg02 0.000000 0.000000 0.000000 0.000000 0.000000 0.000000 10.000000 
Rope2_Seg03 0.000000 0.000000 0.000000 0.000000 0.000000 0.000000 10.000000 
Rope2_Seg04 0.000000 0.000000 0.000000 0.000000 0.000000 0.000000 10.000000 
Rope2_Seg05 0.000000 0.000000 0.000000 0.000000 0.000000 0.000000 10.000000 
Rope2_Seg06 0.000000 0.000000 0.000000 0.000000 0.000000 0.000000 10.000000 
Rope2_Seg07 0.000000 0.000000 0.000000 0.000000 0.000000 0.000000 10.000000 
Rope2_Seg09 0.000000 0.000000 0.000000 0.000000 0.000000 0.000000 10.000000 
R_mid_hand01 0.000000 0.000000 0.000000 0.000000 0.000000 0.000000 10.000000 
R_mid_hand02 0.000000 0.000000 0.000000 0.000000 0.000000 0.000000 10.000000 
R_mid_hand03 0.000000 0.000000 0.000000 0.000000 0.000000 0.000000 10.000000 
spine02 0.000000 0.000000 0.000000 0.000000 0.000000 0.000000 10.000000 
spine03 0.000000 0.000000 0.000000 0.000000 0.000000 0.000000 10.000000 
pelvis 0.000000 0.000000 0.000000 0.000000 0.000000 0.000000 10.000000 
null_rope03_connect 0.000000 0.000000 0.000000 0.000000 0.000000 0.000000 10.000000 
null_rope04_connect 0.000000 0.000000 0.000000 0.000000 0.000000 0.000000 10.000000 
Rope3_Seg01 0.000000 0.000000 0.000000 0.000000 0.000000 0.000000 10.000000 
Rope3_Seg02 0.000000 0.000000 0.000000 0.000000 0.000000 0.000000 10.000000 
Rope3_Seg03 0.000000 0.000000 0.000000 0.000000 0.000000 0.000000 10.000000 
Rope3_Seg04 0.000000 0.000000 0.000000 0.000000 0.000000 0.000000 10.000000 
Rope3_Seg05 0.000000 0.000000 0.000000 0.000000 0.000000 0.000000 10.000000 
Rope3_Seg06 0.000000 0.000000 0.000000 0.000000 0.000000 0.000000 10.000000 
Rope3_Seg07 0.000000 0.000000 0.000000 0.000000 0.000000 0.000000 10.000000 
Rope3_Seg08 0.000000 0.000000 0.000000 0.000000 0.000000 0.000000 10.000000 
Rope3_Seg09 0.000000 0.000000 0.000000 0.000000 0.000000 0.000000 10.000000 
R_rear_hand01 0.000000 0.000000 0.000000 0.000000 0.000000 0.000000 10.000000 
R_rear_hand02 0.000000 0.000000 0.000000 0.000000 0.000000 0.000000 10.000000 
R_rear_hand03 0.000000 0.000000 0.000000 0.000000 0.000000 0.000000 10.000000 
Rope4_Seg01 0.000000 0.000000 0.000000 0.000000 0.000000 0.000000 10.000000 
Rope4_Seg02 0.000000 0.000000 0.000000 0.000000 0.000000 0.000000 10.000000 
Rope4_Seg03 0.000000 0.000000 0.000000 0.000000 0.000000 0.000000 10.000000 
Rope4_Seg04 0.000000 0.000000 0.000000 0.000000 0.000000 0.000000 10.000000 
Rope4_Seg05 0.000000 0.000000 0.000000 0.000000 0.000000 0.000000 10.000000 
Rope4_Seg06 0.000000 0.000000 0.000000 0.000000 0.000000 0.000000 10.000000 
Rope4_Seg07 0.000000 0.000000 0.000000 0.000000 0.000000 0.000000 10.000000 
Rope4_Seg08 0.000000 0.000000 0.000000 0.000000 0.000000 0.000000 10.000000 
Rope4_Seg09 0.000000 0.000000 0.000000 0.000000 0.000000 0.000000 10.000000 
L_rear_hand01 0.000000 0.000000 0.000000 0.000000 0.000000 0.000000 10.000000 
L_rear_hand02 0.000000 0.000000 0.000000 0.000000 0.000000 0.000000 10.000000 
L_rear_hand03 0.000000 0.000000 0.000000 0.000000 0.000000 0.000000 10.000000 
#Beginning of Data. Separated by tabs
#Fr	Tx	Ty	Tz	Rx	Ry	Rz	SF
[MASTER]
39 -855.822144 -6294.466309 141.812775 0.000000 -0.002347 -90.000000 6353.963379
40 -741.785400 -6441.691406 84.057137 0.000000 -0.002347 -90.000000 6484.805176
[root]
39 -62.822239 16.502264 1499.999756 -66.048035 -26.626217 -165.737213 1501.405396
40 -56.807106 16.502274 1495.693359 -66.085419 -25.037888 -170.352112 1496.862671
[chest]
39 -84.512650 -34.090519 0.000000 -2.033825 8.644082 -171.073013 91.129311
40 -84.512650 -34.090519 0.000000 2.472246 9.245265 -169.140808 91.129311
[L_mid_tent01]
39 27.299355 22.179291 -249.918732 -10.523408 -4.958226 -24.158928 252.381744
40 27.299360 22.179295 -249.918732 -11.702731 -4.587903 -21.935938 252.381744
[R_mid_tent01]
39 23.228794 24.509907 226.238495 167.740662 -6.267009 75.910599 228.744751
40 23.228794 24.509907 226.238495 169.734467 -15.842051 72.162773 228.744751
[spine01]
39 -0.361383 -0.195265 0.000000 0.001950 0.001307 22.325701 0.410763
40 -0.361383 -0.195265 0.000000 0.001949 0.001308 22.288172 0.410763
[Bip01_Neck]
39 165.484543 71.581718 0.000119 176.643677 -1.657967 43.431911 180.302734
40 165.484543 71.581718 0.000119 176.643677 -1.657967 43.431911 180.302734
[L_humerus]
39 -13.983130 -135.272980 -120.471481 83.496330 51.896675 167.923279 181.680161
40 -13.983130 -135.272980 -120.471481 78.419861 53.843590 163.159943 181.680161
[R_humerus]
39 -13.983309 -135.273102 125.287651 -175.095383 -78.201599 -89.861389 184.909012
40 -13.983309 -135.273102 125.287651 -178.388992 -81.646500 -86.556290 184.909012
[weapon_bone]
39 235.964890 -300.705902 0.000000 0.000000 -89.951546 -128.212341 382.234833
40 235.964890 -300.705902 0.000000 0.000000 -89.951546 -128.212341 382.234833
[Bip01_Head]
39 213.437485 185.734528 11.532160 18.223387 6.152122 -43.833614 283.171082
40 213.439667 185.728149 11.613787 18.223381 6.152122 -43.833611 283.171875
[eye_left_bone]
39 -24.626970 125.451866 -64.772606 0.000000 -90.000000 -99.840431 143.318359
40 -24.626970 125.451866 -64.772606 0.000000 -90.000000 -99.840431 143.318359
[eye_right_bone]
39 -24.626970 125.451866 64.327362 0.000000 -89.965736 80.156380 143.117676
40 -24.626970 125.451866 64.327362 0.000000 -89.965736 80.156380 143.117676
[L_forearm]
39 322.776093 0.000000 -0.000119 0.000407 -0.002312 -109.965996 322.776093
40 322.776093 0.000000 -0.000119 0.000405 -0.002312 -109.885857 322.776093
[L_front_hand]
39 241.149185 -0.042021 -3.300071 -178.667953 -1.835447 -27.422350 241.171753
40 241.149185 -0.042021 -3.300071 -178.667953 -1.835447 -27.422350 241.171753
[L_weapon_bone]
39 156.183838 0.000000 0.000000 0.000014 0.000007 0.000001 156.183838
40 156.183838 0.000000 0.000000 0.000014 0.000007 0.000001 156.183838
[L_front_hand01_01]
39 86.095154 20.947098 -0.655860 -0.366594 -0.477154 75.385574 88.609184
40 86.095154 20.947098 -0.655860 -0.366594 -0.477154 75.385574 88.609184
[L_front_hand02_01]
39 86.935165 -11.437475 24.513514 154.399796 -59.883835 -61.369587 91.046425
40 86.935165 -11.437475 24.513514 154.399796 -59.883835 -61.369587 91.046425
[L_front_hand03_01]
39 86.637497 -14.123976 -20.424902 -153.913849 58.118122 -62.702866 90.126129
40 86.637497 -14.123976 -20.424902 -153.913849 58.118130 -62.702866 90.126129
[L_front_hand01_02]
39 71.020905 -0.000179 0.000030 0.000334 -0.002323 -106.376259 71.020905
40 71.020905 -0.000179 0.000030 0.000334 -0.002323 -106.376938 71.020905
[L_front_hand02_02]
39 71.020927 -0.000119 0.000060 0.000334 -0.002323 -106.376259 71.020927
40 71.020927 -0.000119 0.000060 0.000334 -0.002323 -106.376938 71.020927
[L_front_hand03_02]
39 71.020905 -0.000060 0.000060 0.000334 -0.002323 -106.376259 71.020905
40 71.020905 -0.000060 0.000060 0.000334 -0.002323 -106.376938 71.020905
[R_forearm]
39 322.776428 -0.000060 0.000030 0.201787 0.066129 -108.613976 322.776428
40 322.776428 -0.000060 0.000030 0.201834 0.065986 -108.532646 322.776428
[R_front_hand]
39 238.847015 -0.006795 2.210259 -2.635298 -10.645461 -26.312506 238.857239
40 238.847015 -0.006795 2.210259 -2.635298 -10.645461 -26.312506 238.857239
[R_weapon_bone]
39 155.664093 0.002503 -0.000030 0.003487 0.001180 -90.988930 155.664078
40 155.664093 0.002503 -0.000030 0.003487 0.001180 -90.988930 155.664078
[R_front_hand01_01]
39 87.624611 14.231146 22.918642 -154.633484 -59.950619 61.746037 91.683487
40 87.624611 14.231146 22.918642 -154.633484 -59.950619 61.746037 91.683487
[R_front_hand02_01]
39 89.356956 14.367283 -19.491137 154.602661 58.302849 63.744389 92.579636
40 89.356956 14.367283 -19.491137 154.602661 58.302849 63.744389 92.579636
[R_front_hand03_01]
39 87.286232 -22.307278 -0.143439 0.162155 -0.423168 -75.767921 90.091743
40 87.286232 -22.307278 -0.143439 0.162155 -0.423168 -75.767921 90.091743
[R_front_hand01_02]
39 71.020905 0.000060 0.000119 0.002323 -0.000334 106.381714 71.020905
40 71.020905 0.000060 0.000119 0.002323 -0.000334 106.381714 71.020905
[R_front_hand02_02]
39 71.020844 -0.000030 -0.000119 0.002323 -0.000334 106.381714 71.020836
40 71.020844 -0.000030 -0.000119 0.002323 -0.000334 106.381714 71.020836
[R_front_hand03_02]
39 71.020905 0.000000 0.000030 0.002323 -0.000334 106.381714 71.020905
40 71.020905 0.000000 0.000030 0.002323 -0.000334 106.381714 71.020905
[null_rope01_connect]
39 328.732483 0.000000 -0.000238 -60.545578 67.313576 -100.655006 328.732483
40 328.732483 0.000000 -0.000238 -53.575600 72.369965 -97.049820 328.732483
[Rope1_Seg01]
39 0.000000 0.000000 0.000000 -8.531058 -1.987128 106.873268 0.000000
40 0.000000 0.000000 0.000000 -9.030484 3.848943 98.625908 0.000000
[Rope1_Seg02]
39 139.999863 -0.000179 0.000000 1.838202 -6.069851 2.361208 139.999863
40 139.999863 -0.000179 0.000000 2.753904 -6.349872 2.460237 139.999863
[Rope1_Seg03]
39 139.999924 0.000060 -0.000060 3.409953 -8.088735 -0.373428 139.999924
40 139.999924 0.000060 -0.000060 4.791451 -8.456906 0.029391 139.999924
[Rope1_Seg04]
39 139.999924 -0.000060 -0.000119 8.020771 -12.299407 -9.068546 139.999924
40 139.999924 -0.000060 -0.000119 10.327524 -12.593337 -7.778991 139.999924
[Rope1_Seg05]
39 139.999832 0.000119 -0.000060 -4.841658 8.957186 26.547544 139.999832
40 139.999832 0.000119 -0.000060 -8.482513 10.574258 28.833357 139.999832
[Rope1_Seg06]
39 139.999954 0.000119 -0.000060 11.095095 15.596905 51.106339 139.999954
40 139.999954 0.000119 -0.000060 4.873374 12.880485 47.908211 139.999954
[Rope1_Seg07]
39 139.999985 0.000060 0.000000 4.282355 4.255218 11.411290 139.999985
40 139.999985 0.000060 0.000000 2.874062 2.506769 11.071939 139.999985
[Rope1_Seg09]
39 121.602913 0.000119 -0.000089 -89.793175 -1.359789 0.847147 121.602913
40 121.602913 0.000119 -0.000089 -89.793175 -1.359789 0.847147 121.602913
[L_mid_hand01]
39 103.859421 1.038730 8.195221 130.544373 -67.584534 -38.866943 104.187431
40 103.859421 1.038730 8.195221 130.544373 -67.584534 -38.866943 104.187431
[L_mid_hand02]
39 105.572853 -4.139662 -10.864139 -168.923172 43.409309 -73.498886 106.211075
40 105.572853 -4.139662 -10.864139 -168.923172 43.409309 -73.498886 106.211075
[L_mid_hand03]
39 104.641464 17.579376 -3.913581 -6.012627 17.808174 74.893669 106.179977
40 104.641464 17.579376 -3.913581 -6.012627 17.808174 74.893669 106.179977
[null_rope02_connect]
39 328.732849 0.000179 -0.000119 115.622620 -47.739178 -157.592361 328.732849
40 328.732849 0.000179 -0.000119 124.495102 -43.969334 -169.755524 328.732849
[Rope2_Seg01]
39 -0.000047 -0.000046 0.000000 9.511810 -37.721622 150.571457 0.000066
40 -0.000047 -0.000042 0.000000 23.601149 -36.496510 137.975555 0.000063
[Rope2_Seg02]
39 139.999741 -0.000060 -0.000119 1.689139 5.564297 -5.360600 139.999756
40 139.999741 -0.000060 -0.000119 3.417643 6.199785 -7.688114 139.999756
[Rope2_Seg03]
39 140.000107 0.000030 0.000000 4.538952 8.829690 -9.170217 140.000107
40 140.000107 0.000030 0.000000 9.764553 8.845436 -12.728998 140.000107
[Rope2_Seg04]
39 139.999802 0.000000 -0.000060 27.218786 15.480525 -19.636663 139.999802
40 139.999802 0.000000 -0.000060 47.700653 11.627822 -25.084665 139.999802
[Rope2_Seg05]
39 139.999985 -0.000060 0.000119 79.812546 4.739550 -29.122950 139.999985
40 139.999985 -0.000060 0.000119 40.625900 -8.211945 -17.179783 139.999985
[Rope2_Seg06]
39 139.999893 -0.000030 -0.000119 3.284971 -3.668770 -0.222383 139.999893
40 139.999893 -0.000030 -0.000119 -6.306924 1.374418 3.151093 139.999893
[Rope2_Seg07]
39 139.999893 0.000060 -0.000060 -12.747427 6.440929 3.334455 139.999893
40 139.999893 0.000060 -0.000060 -9.107202 2.477670 4.341209 139.999893
[Rope2_Seg09]
39 121.338966 0.000089 -0.000060 33.793236 -1.359788 -0.847141 121.338966
40 121.338966 0.000089 -0.000060 33.793236 -1.359788 -0.847141 121.338966
[R_mid_hand01]
39 104.680779 11.144459 -10.335981 -16.212065 45.237247 70.462852 105.778534
40 104.680779 11.144459 -10.335981 -16.212063 45.237247 70.462852 105.778534
[R_mid_hand02]
39 104.070427 2.443552 8.231699 49.067387 -67.749794 39.286469 104.424065
40 104.070427 2.443552 8.231699 49.067368 -67.749771 39.286453 104.424065
[R_mid_hand03]
39 106.028137 -11.221827 -5.996406 -177.101105 15.551026 -76.585571 106.788818
40 106.028137 -11.221827 -5.996406 -177.101105 15.551026 -76.585571 106.788818
[spine02]
39 129.756927 0.001550 0.000119 0.412309 -4.039294 -13.699098 129.756927
40 129.756927 0.001550 0.000119 0.405391 -4.040057 -13.595866 129.756927
[spine03]
39 78.613998 0.081737 -4.898994 1.929542 3.815088 16.965757 78.766541
40 78.613998 0.081737 -4.898993 1.924507 3.817236 16.893883 78.766541
[pelvis]
39 169.435242 0.051022 0.000000 -39.156841 3.517565 -0.314897 169.435257
40 169.435242 0.051022 0.000000 -35.936626 3.604872 0.944256 169.435257
[null_rope03_connect]
39 -1.257226 -2.466202 137.391083 -130.224838 63.827797 144.850128 137.418976
40 -1.257226 -2.466202 137.391083 -128.692032 68.474571 142.477112 137.418976
[null_rope04_connect]
39 -1.259640 -2.480268 -137.844437 -130.224838 63.827797 144.850128 137.872513
40 -1.259640 -2.480268 -137.844437 -128.692032 68.474571 142.477112 137.872513
[Rope3_Seg01]
39 0.000000 0.000000 0.000000 -131.938446 -6.583305 120.886307 0.000000
40 0.000000 0.000000 0.000000 -131.029343 -3.621617 115.272751 0.000000
[Rope3_Seg02]
39 139.999924 -0.000119 0.000060 0.561309 -2.287236 -1.270989 139.999924
40 139.999924 -0.000119 0.000060 0.437076 -2.446474 -1.392824 139.999924
[Rope3_Seg03]
39 139.999924 -0.000119 0.000119 0.250501 1.025404 2.378101 139.999924
40 139.999924 -0.000119 0.000119 0.234482 0.359286 1.688949 139.999924
[Rope3_Seg04]
39 139.999924 0.000119 0.000000 0.333101 0.252335 2.252836 139.999924
40 139.999924 0.000119 0.000000 0.171643 1.194426 3.015879 139.999924
[Rope3_Seg05]
39 139.999924 -0.000238 0.000060 46.402351 -38.327759 -46.675575 139.999924
40 139.999924 -0.000238 0.000060 31.432722 -36.566875 -42.668682 139.999924
[Rope3_Seg06]
39 139.999893 -0.000119 -0.000060 52.619732 -15.414005 -3.781772 139.999893
40 139.999893 -0.000119 -0.000060 36.625359 -16.387236 -8.225777 139.999893
[Rope3_Seg07]
39 139.999771 0.000060 -0.000119 20.607124 -4.066841 3.316925 139.999771
40 139.999771 0.000060 -0.000119 22.312857 -5.724102 1.006929 139.999771
[Rope3_Seg08]
39 139.999985 -0.000060 0.000000 8.814285 -1.330504 2.285375 139.999985
40 139.999985 -0.000060 0.000000 12.111811 -2.456609 1.556807 139.999985
[Rope3_Seg09]
39 90.185997 -0.000179 -0.000060 89.793228 -1.359877 -0.847183 90.185997
40 90.185997 -0.000179 -0.000060 89.793228 -1.359877 -0.847183 90.185997
[R_rear_hand01]
39 103.366196 -6.073594 -10.757982 -177.714203 24.565960 -73.910950 104.101845
40 103.366196 -6.073594 -10.757982 -177.714203 24.565960 -73.910950 104.101845
[R_rear_hand02]
39 100.509819 12.039542 -7.992327 -12.874834 36.868492 72.167213 101.543350
40 100.509819 12.039542 -7.992327 -12.874829 36.868488 72.167213 101.543350
[R_rear_hand03]
39 101.539970 5.215704 5.435467 71.484634 -71.816666 21.513840 101.819031
40 101.539970 5.215704 5.435467 71.484581 -71.816628 21.513813 101.819031
[Rope4_Seg01]
39 0.000010 0.000009 -0.000037 39.439316 -27.587135 101.214798 0.000039
40 0.000010 0.000008 -0.000034 43.246212 -20.590069 96.016327 0.000036
[Rope4_Seg02]
39 139.999985 0.000060 0.000119 0.829501 21.670307 15.382445 139.999985
40 139.999985 0.000060 0.000119 1.254156 20.871515 13.256080 139.999985
[Rope4_Seg03]
39 139.999924 0.000000 -0.000238 -3.535627 17.007870 12.503706 139.999924
40 139.999924 0.000000 -0.000238 -1.599893 17.627310 11.597114 139.999924
[Rope4_Seg04]
39 139.999985 0.000000 0.000119 -1.289559 1.711995 1.649436 139.999985
40 139.999985 0.000000 0.000119 -0.828893 2.547516 1.808762 139.999985
[Rope4_Seg05]
39 139.999802 -0.000060 -0.000119 5.168617 -9.994172 -8.617496 139.999802
40 139.999802 -0.000060 -0.000119 4.003378 -10.567584 -8.042852 139.999802
[Rope4_Seg06]
39 139.999924 0.000000 0.000060 3.501639 -12.498549 -9.285711 139.999924
40 139.999924 0.000000 0.000060 2.892942 -13.106990 -8.893970 139.999924
[Rope4_Seg07]
39 139.999802 0.000000 0.000000 1.108306 -7.060977 -4.671445 139.999802
40 139.999802 0.000000 0.000000 0.941092 -7.291610 -4.544518 139.999802
[Rope4_Seg08]
39 139.999924 0.000000 0.000119 -1.011266 -4.751448 -3.035729 139.999924
40 139.999924 0.000000 0.000119 -1.095730 -4.876619 -2.951961 139.999924
[Rope4_Seg09]
39 90.185791 0.000060 0.000060 -135.617828 2.228885 0.850567 90.185791
40 90.185791 0.000060 0.000060 -135.617828 2.228885 0.850567 90.185791
[L_rear_hand01]
39 101.696655 -8.392275 -7.654577 -12.874829 -36.868488 107.832764 102.329041
40 101.696655 -8.392275 -7.654577 -12.874829 -36.868488 107.832764 102.329041
[L_rear_hand02]
39 102.726799 -1.568258 5.773216 71.484581 71.816628 158.486160 102.900848
40 102.726799 -1.568258 5.773216 71.484581 71.816628 158.486160 102.900848
[L_rear_hand03]
39 104.552910 9.721220 -10.420293 -177.714203 -24.565960 -106.089035 105.519653
40 104.552910 9.721220 -10.420293 -177.714203 -24.565960 -106.089035 105.519653
